<svg xmlns="http://www.w3.org/2000/svg" width="271.5" height="36.902" viewBox="0 0 271.5 36.902">
  <g id="logo-new" transform="translate(-210 -107)">
    <path id="Path_17474" data-name="Path 17474" d="M274.079,4.341,270.316,8.1,266.352,4.14,270.115.377a1.289,1.289,0,0,1,1.822,0l2.141,2.141a1.289,1.289,0,0,1,0,1.822" transform="translate(79.84 107)" fill="#ef4136"/>
    <path id="Path_17477" data-name="Path 17477" d="M236.384,15.408l-6.075-6.075a1.288,1.288,0,0,1,0-1.822l1.523-1.523a1.288,1.288,0,0,1,1.822,0l6.075,6.075Z" transform="translate(97.639 104.258)" fill="#1c45a8"/>
    <path id="Path_17463" data-name="Path 17463" d="M0,14.317a.658.658,0,0,1,.637-.637H4.623a.635.635,0,0,1,.635.637v8.441h9.581V14.317a.636.636,0,0,1,.637-.637h3.986a.66.66,0,0,1,.637.637V36.491a.659.659,0,0,1-.637.636H15.475a.635.635,0,0,1-.637-.636v-8.81H5.258v8.81a.635.635,0,0,1-.635.636H.637A.658.658,0,0,1,0,36.491Z" transform="translate(210 100.315)" fill="#1c45a8"/>
    <path id="Path_17464" data-name="Path 17464" d="M65.8,13.024A12.059,12.059,0,1,1,53.776,25.116,12.037,12.037,0,0,1,65.8,13.024m0,18.758a6.7,6.7,0,1,0-6.666-6.667A6.712,6.712,0,0,0,65.8,31.782" transform="translate(183.721 100.636)" fill="#1c45a8"/>
    <path id="Path_17465" data-name="Path 17465" d="M114.693,14.317a.658.658,0,0,1,.637-.637h4.12a.636.636,0,0,1,.637.637V27.883a4.154,4.154,0,1,0,8.306,0V14.317a.636.636,0,0,1,.637-.637h4.12a.658.658,0,0,1,.637.637V28.15a9.549,9.549,0,0,1-19.092,0Z" transform="translate(153.952 100.315)" fill="#1c45a8"/>
    <path id="Path_17466" data-name="Path 17466" d="M169.128,14.316a.635.635,0,0,1,.636-.636H179.78a7.284,7.284,0,0,1,7.3,7.235,7.351,7.351,0,0,1-4.958,6.733l4.589,8.507a.634.634,0,0,1-.57.972h-4.454a.619.619,0,0,1-.537-.3L176.7,27.949h-2.312v8.542a.658.658,0,0,1-.635.637h-3.986a.635.635,0,0,1-.636-.637Zm10.216,9.379a2.685,2.685,0,0,0,2.546-2.679,2.566,2.566,0,0,0-2.546-2.546h-4.958v5.225Z" transform="translate(127.351 100.315)" fill="#1c45a8"/>
    <path id="Path_17467" data-name="Path 17467" d="M315.605,14.163a.583.583,0,0,1,.6-.8h3.92a.687.687,0,0,1,.6.469l2.881,11.355h.133l5.193-11.791a.64.64,0,0,1,.57-.369h.6a.57.57,0,0,1,.57.369l5.192,11.791H336l2.881-11.355a.686.686,0,0,1,.6-.469h3.919a.583.583,0,0,1,.6.8l-6.33,22.51a.644.644,0,0,1-.6.469h-.536a.681.681,0,0,1-.57-.369l-6.129-13.7h-.1l-6.1,13.7a.68.68,0,0,1-.57.369h-.536a.643.643,0,0,1-.6-.469Z" transform="translate(55.788 100.636)" fill="#1c45a8"/>
    <path id="Path_17468" data-name="Path 17468" d="M393.3,13.024a12.059,12.059,0,1,1-12.026,12.092A12.037,12.037,0,0,1,393.3,13.024m0,18.758a6.7,6.7,0,1,0-6.666-6.667,6.712,6.712,0,0,0,6.666,6.667" transform="translate(23.681 100.636)" fill="#1c45a8"/>
    <path id="Path_17469" data-name="Path 17469" d="M442.845,14.316a.635.635,0,0,1,.636-.636H453.5a7.284,7.284,0,0,1,7.3,7.235,7.351,7.351,0,0,1-4.958,6.733l4.589,8.507a.634.634,0,0,1-.57.972h-4.454a.619.619,0,0,1-.537-.3l-4.455-8.877H448.1v8.542a.658.658,0,0,1-.636.637h-3.985a.635.635,0,0,1-.636-.637Zm10.216,9.379a2.685,2.685,0,0,0,2.546-2.679,2.566,2.566,0,0,0-2.546-2.546H448.1v5.225Z" transform="translate(-6.408 100.315)" fill="#1c45a8"/>
    <path id="Path_17470" data-name="Path 17470" d="M493.283,14.483a.792.792,0,0,1,.8-.8h3.918a.814.814,0,0,1,.8.8v8.81l7.436-9.278a1,1,0,0,1,.637-.334h4.22a.774.774,0,0,1,.6,1.239l-7.839,9.814,8.543,11.121a.787.787,0,0,1-.637,1.239H507.15a.914.914,0,0,1-.6-.234l-7.738-10.518v9.982a.815.815,0,0,1-.8.8h-3.918a.793.793,0,0,1-.8-.8Z" transform="translate(-31.056 100.315)" fill="#1c45a8"/>
    <path id="Path_17471" data-name="Path 17471" d="M239.821,28.169a1.322,1.322,0,0,0,1.839.017l11.964-11.522a1.263,1.263,0,0,0,.017-1.8L251.5,12.72a1.322,1.322,0,0,0-1.839-.017L237.7,24.224a1.263,1.263,0,0,0-.017,1.8Z" transform="translate(94.032 100.971)" fill="#ef4136"/>
    <path id="Path_17472" data-name="Path 17472" d="M272.781,23.836a1.292,1.292,0,0,1,0,1.822l-1.5,1.5a1.292,1.292,0,0,1-1.822,0L248.8,6.507a1.291,1.291,0,0,1,0-1.822l1.5-1.5a1.292,1.292,0,0,1,1.822,0Z" transform="translate(88.599 105.629)" fill="#1c45a8"/>
    <path id="Path_17473" data-name="Path 17473" d="M251.781,44.836a1.292,1.292,0,0,1,0,1.822l-1.5,1.5a1.292,1.292,0,0,1-1.822,0L227.8,27.507a1.291,1.291,0,0,1,0-1.822l1.5-1.5a1.292,1.292,0,0,1,1.822,0Z" transform="translate(98.861 95.367)" fill="#1c45a8"/>
    <path id="Path_17475" data-name="Path 17475" d="M268.55,16.858l-2.141-2.141a1.289,1.289,0,0,0-1.822,0L253.963,25.339l-5.805-5.805-3.324,3.324,5.805,5.806L240.075,39.227a1.289,1.289,0,0,0,0,1.822l2.141,2.141a1.289,1.289,0,0,0,1.822,0L268.55,18.68a1.289,1.289,0,0,0,0-1.822" transform="translate(92.865 99.993)" fill="#ef4136"/>
    <path id="Path_17476" data-name="Path 17476" d="M225.229,45.263l3.763-3.763,3.964,3.964-3.763,3.763a1.289,1.289,0,0,1-1.822,0l-2.141-2.141a1.289,1.289,0,0,1,0-1.822" transform="translate(100.12 86.72)" fill="#ef4136"/>
    <path id="Path_17478" data-name="Path 17478" d="M275.277,47.611l6.075,6.075a1.288,1.288,0,0,1,0,1.822l-1.523,1.523a1.288,1.288,0,0,1-1.822,0l-6.075-6.075Z" transform="translate(77.113 83.734)" fill="#1c45a8"/>
  </g>
</svg>
